<svg xmlns="http://www.w3.org/2000/svg" width="178.073" height="177.926" viewBox="10.76 10.751 178.073 177.926"><path fill="#7E0E09" d="M100 172.861c40.209 0 73.002-32.767 73.002-72.941S140.209 26.979 100 26.979c-40.206 0-73 32.767-73 72.941 0 40.176 32.794 72.941 73 72.941z"/><path fill="none" d="M100 172.861c40.209 0 73.002-32.767 73.002-72.941S140.209 26.979 100 26.979c-40.206 0-73 32.767-73 72.941 0 40.176 32.794 72.941 73 72.941z"/><path fill="#F5F21F" d="M100 99.922V29.754L84.252 78.156 100 99.922zM100 99.922l66.857-21.781-51.103.01L100 99.922zM125.627 108.139 100 99.922l41.262 56.748-15.635-48.531zM100.012 126.701 100 99.922l-41.297 56.754 41.309-29.975zM100 99.922l-66.892-21.76 41.312 30.004L100 99.922z"/><path fill="#CCAA1B" d="M100 99.922V29.754l15.756 48.396L100 99.922z"/><path fill="#CCAA2C" d="m100 99.922-66.892-21.76 51.144-.004L100 99.922zM74.42 108.166 100 99.922l-41.297 56.754 15.717-48.51zM100.012 126.701 100 99.922l41.262 56.748-41.25-29.969zM100 99.922l66.857-21.781-41.23 29.998L100 99.922z"/><path fill="#CCAA2C" d="m101 99.922 66.857-21.781-41.23 29.998L101 99.922z"/><path fill="#FFF" d="M109.52 99.926c0-5.247-4.26-9.503-9.512-9.503-5.253 0-9.512 4.256-9.512 9.503 0 5.248 4.259 9.504 9.512 9.504 5.252 0 9.512-4.256 9.512-9.504zm-9.512-7.938c4.387 0 7.943 3.555 7.943 7.938s-3.557 7.936-7.943 7.936c-4.386 0-7.943-3.553-7.943-7.936s3.557-7.938 7.943-7.938z"/><path fill="#FFF" d="M100.008 83.266c9.205 0 16.674 7.461 16.674 16.66s-7.469 16.66-16.674 16.66c-9.207 0-16.673-7.461-16.673-16.66-.001-9.199 7.466-16.66 16.673-16.66zm18.246 16.66c0-10.066-8.17-18.232-18.246-18.232-10.076 0-18.247 8.166-18.247 18.232 0 10.068 8.171 18.232 18.247 18.232s18.246-8.164 18.246-18.232z"/><path fill="#FFF" d="M100.008 74.52c14.041 0 25.428 11.378 25.428 25.406 0 14.029-11.387 25.406-25.428 25.406-14.039 0-25.427-11.377-25.427-25.406 0-14.029 11.386-25.406 25.427-25.406zm27 25.406c0-14.896-12.09-26.979-27-26.979-14.908 0-26.999 12.083-26.999 26.979 0 14.898 12.091 26.979 26.999 26.979 14.91-.001 27-12.081 27-26.979z"/><path fill="#FFF" d="M134.174 99.926c0 18.852-15.301 34.139-34.166 34.139-18.867 0-34.167-15.287-34.167-34.139 0-18.85 15.3-34.139 34.167-34.139 18.865 0 34.166 15.289 34.166 34.139zm1.574 0c0-19.719-16.004-35.709-35.74-35.709-19.734 0-35.739 15.99-35.739 35.709s16.004 35.711 35.739 35.711c19.736 0 35.74-15.992 35.74-35.711z"/><path fill="#FFF" d="M142.912 99.926c0 23.672-19.213 42.871-42.904 42.871-23.691 0-42.905-19.199-42.905-42.871 0-23.673 19.213-42.869 42.905-42.869s42.904 19.196 42.904 42.869zm-42.904 44.437c24.559 0 44.475-19.9 44.475-44.438 0-24.538-19.916-44.438-44.475-44.438-24.558 0-44.474 19.899-44.474 44.438 0 24.538 19.915 44.438 44.474 44.438z"/><path fill="#7E0E09" d="M172.764 139.803s-1.588 3.047-2.56 4.469l-.972 1.523s2.602-2.13 3.519-2.788c.919-.657 4.847-3.138 5.356-4.052l1.174-1.014s-2.561 5.078-3.25 5.839c0 0-4.576 6.804-10.529 6.936 0 0-3.578 4.772-5.313 6.089 0 0 3.924-1.92 5.4-2.373s6.568-1.606 8.811-2.718c0 0-4.03 3.699-5 4.356-.969.658-6.428 5.424-12.02 3.572 0 0-5.052 4.41-5.663 4.562 0 0 2.648-.704 7.99-.938 5.344-.238 5.495.068 5.495.068s-6.473 3.438-8.661 3.583c-1.985.757-6.261.996-8.698-.437l-2.143 1.299-.604-1.104 3.262-1.72s-.701-3.563 1.955-6.71c2.656-3.145 3.469-2.803 5.258-5.408 0 0-.016 4.814-2.829 9.182 0 0 4.848-3.851 4.95-4.153 0 0-2.027-2.146 1.857-8.339 3.481-5.992 3.53-5.637 3.53-5.637s1.058 3.717-1.255 9.766l4.242-5.379s-1.621-2.448-.129-7.022c0 0 2.668-6.604 3.026-7.569 0 0 .695 4.885.795 5.599 0 0 .499 2.749-.319 4.477 0 0 2.556-3.858 3.174-5.739 0 0-2.896-2.35-.756-10.432 2.141-8.083 1.162-4.881 1.162-4.881s1.853 8.962 1.184 11.352c0 0 1.129-2.846 1.492-4.932 0 0-2.189-4.997 4.183-13.521 0 0-.192 7.53-.503 8.496 0 0-.111 2.95-3.068 5.078 0 0-1.188 5.594-1.699 6.405 0 0 2.761-4.267 3.832-5.483 1.074-1.218 3.475-4.211 3.475-4.211s-1.232 3.813-1.389 4.32c-.152.506-2.213 8.589-7.762 9.589 0 0-1.588 3.047-2.56 4.469"/><circle fill="none" cx="100" cy="99.922" r="74.839"/><path fill="#7E0E09" d="M28.031 139.803s1.587 3.047 2.559 4.469l.972 1.523s-2.602-2.13-3.519-2.788c-.919-.657-4.846-3.138-5.357-4.052l-1.173-1.014s2.561 5.078 3.25 5.839c0 0 4.576 6.804 10.529 6.936 0 0 3.578 4.772 5.312 6.089 0 0-3.924-1.92-5.4-2.373s-6.568-1.606-8.811-2.718c0 0 4.031 3.699 5.001 4.356.968.658 6.428 5.424 12.019 3.572 0 0 5.052 4.41 5.663 4.562 0 0-2.648-.704-7.99-.938-5.344-.238-5.495.068-5.495.068s6.473 3.438 8.661 3.583c1.986.757 6.261.996 8.698-.437l2.143 1.299.604-1.104-3.262-1.72s.701-3.563-1.955-6.71c-2.656-3.145-3.469-2.803-5.258-5.408 0 0 .016 4.814 2.829 9.182 0 0-4.848-3.851-4.95-4.153 0 0 2.027-2.146-1.858-8.339-3.481-5.992-3.53-5.637-3.53-5.637s-1.057 3.717 1.255 9.766l-4.242-5.379s1.62-2.448.129-7.022c0 0-2.668-6.604-3.027-7.569 0 0-.695 4.885-.795 5.599 0 0-.499 2.749.32 4.477 0 0-2.556-3.858-3.174-5.739 0 0 2.895-2.35.755-10.432-2.14-8.083-1.162-4.881-1.162-4.881s-1.852 8.962-1.183 11.352c0 0-1.129-2.846-1.492-4.932 0 0 2.189-4.997-4.183-13.521 0 0 .193 7.53.503 8.496 0 0 .111 2.95 3.068 5.078 0 0 1.189 5.594 1.7 6.405 0 0-2.761-4.267-3.833-5.483-1.073-1.218-3.474-4.211-3.474-4.211s1.233 3.813 1.388 4.32c.154.506 2.216 8.589 7.765 9.589 0 0 1.587 3.047 2.559 4.469"/><circle fill="none" cx="100" cy="99.922" r="74.839"/><path fill="#7D1416" d="m20.479 110.568 3.279-.414c.639-.081 1.038-.159 1.197-.235s.279-.19.36-.344c.081-.152.098-.416.05-.79l.323-.042.532 4.206-.322.041c-.049-.383-.132-.636-.251-.759a.811.811 0 0 0-.433-.237c-.169-.033-.575-.011-1.214.07l-7.673.97c-.64.081-1.039.159-1.198.234a.781.781 0 0 0-.359.341c-.082.151-.099.415-.051.794l-.322.04-.457-3.606c-.15-1.188.044-2.078.583-2.673.54-.593 1.263-.947 2.17-1.061.767-.098 1.445-.014 2.033.25a2.55 2.55 0 0 1 1.291 1.239c.19.378.343 1.037.462 1.976zm-5.79.732 5.109-.646a3.62 3.62 0 0 0-.021-.308c-.063-.496-.321-.852-.777-1.067-.456-.216-1.125-.267-2.009-.155-.877.11-1.503.327-1.876.646-.373.32-.526.746-.458 1.279l.032.251zM13.13 102.323c-.105-1.327.421-2.421 1.577-3.282 1.155-.86 2.618-1.314 4.387-1.36 1.511-.039 2.849.236 4.013.826 1.544.779 2.335 1.918 2.375 3.414.04 1.501-.657 2.681-2.088 3.538-1.131.679-2.484 1.037-4.061 1.079-1.769.046-3.254-.338-4.457-1.149-1.202-.814-1.784-1.834-1.746-3.066zm.56-.09c.02.763.592 1.329 1.715 1.698.922.299 2.238.427 3.949.383 2.032-.053 3.528-.341 4.488-.867.67-.366.998-.862.981-1.49a1.413 1.413 0 0 0-.467-1.047c-.384-.351-.99-.616-1.818-.795-.829-.18-1.905-.253-3.229-.219-1.576.042-2.751.175-3.528.4-.776.225-1.322.5-1.636.828-.313.325-.465.696-.455 1.109z"/><path fill="#7D1416" d="m21.531 90.062 4.147.635-.572 7.386-.325-.024.021-.277c.019-.24-.027-.439-.139-.597-.074-.112-.208-.205-.401-.277-.137-.056-.503-.106-1.1-.153l-7.816-.605c-.608-.047-.989-.054-1.145-.021a.809.809 0 0 0-.419.242c-.125.128-.196.309-.214.542l-.021.276-.324-.025.343-4.435.325.024-.028.362c-.018.241.028.44.139.597.074.113.207.207.401.284.137.056.503.106 1.099.153l7.571.587c.608.047.997.052 1.167.016a.612.612 0 0 0 .395-.26c.061-.098.106-.344.136-.736l.054-.692c.035-.442-.048-.819-.247-1.131-.199-.312-.53-.593-.993-.845s-1.153-.51-2.073-.774l.019-.252z"/><path fill="#7D1416" d="m15.123 81.518.321.053c.007.279.086.507.236.681.209.243.819.67 1.829 1.284l3.967 2.481 2.845.466c.606.1.988.139 1.143.118s.299-.087.434-.2c.134-.112.219-.279.255-.497l.076-.462.321.053-.755 4.621-.321-.053.071-.432c.04-.243.01-.445-.088-.606-.064-.118-.189-.224-.376-.316-.132-.067-.492-.149-1.082-.246l-2.359-.386-5.356 1.112c-1.058.222-1.688.397-1.89.526a.84.84 0 0 0-.376.587l-.321-.053.646-3.946.321.053-.029.176c-.039.239-.017.414.065.525a.45.45 0 0 0 .289.192c.208.034.758-.042 1.649-.229l4.138-.851-3.305-2.062c-.807-.51-1.352-.788-1.635-.835a.533.533 0 0 0-.416.095c-.167.113-.296.353-.385.716l-.321-.053.409-2.512zM17.221 73.742l3.115.838-.058.214c-.753-.066-1.307-.064-1.663.005-.356.07-.664.215-.923.435-.142.123-.264.372-.365.748l-.162.601 8.878 2.389c.588.158.962.235 1.121.229a.848.848 0 0 0 .459-.163c.146-.103.249-.27.311-.499l.073-.268.314.085-1.135 4.218-.314-.084.072-.269c.063-.233.054-.438-.026-.612-.051-.123-.166-.241-.342-.353-.124-.08-.475-.198-1.052-.354l-8.877-2.389-.157.582c-.146.543-.088.98.174 1.315.366.468.96.861 1.785 1.181l-.061.226-3.115-.838 1.948-7.237zM19.167 70.396l4.542 1.707.059-.155c.186-.495.098-.938-.262-1.327-.36-.39-.963-.778-1.806-1.165l.082-.219 5.841 2.195-.083.219c-.653-.193-1.21-.292-1.672-.297-.462-.005-.8.064-1.013.208-.213.143-.39.401-.53.773l3.143 1.181c.614.231.997.354 1.148.37a.718.718 0 0 0 .414-.078c.125-.067.23-.212.314-.435l.175-.467c.274-.729.252-1.404-.064-2.025-.317-.621-.934-1.213-1.849-1.776l.081-.213 3.413 1.684-2.537 6.75-.304-.114.098-.259c.085-.227.096-.431.032-.612-.039-.129-.142-.255-.308-.379-.116-.092-.453-.243-1.012-.453L19.73 72.75c-.505-.189-.818-.295-.941-.319a.909.909 0 0 0-.524.045c-.208.089-.36.26-.456.513l-.098.26-.304-.114 2.457-6.537 3.299 1.24-.082.219c-.849-.191-1.486-.253-1.913-.183a1.935 1.935 0 0 0-1.095.564c-.179.178-.38.563-.603 1.153l-.303.805zM23.735 57.877l3.7 1.836-.106.214c-1.046-.317-1.936-.383-2.668-.196-.733.186-1.238.558-1.516 1.116-.231.466-.251.99-.062 1.569.19.579.551 1.113 1.081 1.6.678.625 1.502 1.178 2.474 1.659.955.475 1.867.821 2.736 1.042.869.22 1.593.249 2.173.089.581-.161 1.013-.528 1.297-1.102.233-.47.3-.974.2-1.512-.1-.536-.402-1.2-.906-1.99l.921.456c.417.729.653 1.39.709 1.982.056.594-.066 1.193-.368 1.8-.395.797-.975 1.393-1.739 1.785-.763.393-1.657.545-2.679.457A8.297 8.297 0 0 1 26 67.831a8.475 8.475 0 0 1-2.62-1.997c-.729-.826-1.188-1.681-1.377-2.564-.19-.884-.108-1.682.246-2.396.26-.524.698-.999 1.313-1.422.356-.244.557-.412.603-.505.059-.117.047-.249-.034-.397-.08-.147-.248-.301-.502-.459l.106-.214zM31.359 57.771l3.108 1.991c.514.329.847.515 1 .558a.836.836 0 0 0 .486-.019c.17-.054.319-.179.445-.376l.149-.233.274.176-2.354 3.673-.273-.176.149-.232c.131-.204.184-.401.16-.592-.011-.134-.085-.279-.222-.436-.094-.113-.392-.332-.896-.654l-6.6-4.23c-.513-.329-.846-.516-.999-.56a.82.82 0 0 0-.484.015c-.17.054-.319.18-.444.376l-.15.233-.274-.176 2.354-3.672.273.175-.149.233c-.131.204-.184.401-.16.592.012.135.084.281.219.44.094.113.393.332.896.654l2.842 1.821 1.59-2.481-2.841-1.821c-.513-.328-.846-.515-.999-.56-.153-.044-.314-.038-.486.018s-.32.182-.446.379l-.146.229-.274-.176 2.351-3.668.274.176-.146.229c-.133.207-.187.404-.161.592.012.134.085.28.219.439.094.113.393.332.896.654l6.601 4.23c.513.329.846.516.999.56a.812.812 0 0 0 .486-.017c.171-.057.32-.183.446-.38l.146-.228.274.176-2.35 3.667-.274-.176.146-.228c.133-.207.187-.404.16-.592-.011-.134-.084-.28-.219-.439-.094-.114-.393-.332-.896-.655l-3.108-1.992-1.592 2.483z"/><path fill="#7D1416" d="m31.597 46.608 8.336 1.44-3.987-3.219c-.556-.448-.978-.696-1.264-.743-.388-.061-.723.094-1.005.462l-.253-.204 1.732-2.146.253.204c-.171.315-.255.552-.251.711.003.158.074.336.212.535.137.197.425.474.862.826l7.721 6.234-.132.162-11.265-1.844 5.895 4.759c.533.432.962.637 1.287.617.325-.021.576-.141.753-.36l.124-.153.253.204-1.859 2.303-.253-.204c.285-.361.381-.695.289-1.001-.092-.306-.384-.658-.876-1.056l-6.545-5.283-.357-.061c-.357-.061-.617-.07-.78-.027s-.329.159-.497.349l-.253-.203 1.86-2.302zM46.827 46.823l.237.223-2.994 3.172-.237-.223.19-.201c.167-.177.255-.36.267-.552.014-.134-.032-.29-.138-.469-.071-.129-.324-.399-.758-.81l-5.702-5.381c-.443-.418-.735-.663-.877-.734a.823.823 0 0 0-.479-.076c-.177.022-.345.117-.506.287l-.189.201-.237-.223 2.994-3.172.237.223-.19.201c-.167.177-.255.36-.267.552-.014.134.031.292.133.474.071.129.325.398.759.809l5.702 5.381c.443.419.736.663.879.733.143.07.303.095.481.073.177-.021.345-.117.506-.287l.189-.201z"/><path fill="#7D1416" d="m44.389 32.933 2.777 3.059-.178.161c-.858-.677-1.663-1.063-2.413-1.157s-1.356.068-1.818.487c-.386.351-.595.83-.63 1.438-.034.609.106 1.237.422 1.884.404.829.97 1.646 1.698 2.447.717.79 1.439 1.445 2.168 1.967.728.521 1.392.813 1.991.875s1.135-.123 1.609-.552c.389-.354.635-.799.737-1.335.104-.536.064-1.265-.117-2.185l.69.762c.123.831.102 1.532-.063 2.104-.165.573-.497 1.086-.998 1.541-.66.599-1.416.941-2.271 1.028s-1.741-.097-2.661-.551a8.286 8.286 0 0 1-2.467-1.88 8.437 8.437 0 0 1-1.711-2.814c-.377-1.035-.493-1.998-.348-2.89.146-.893.513-1.605 1.103-2.142.434-.394 1.015-.676 1.742-.845.421-.098.669-.181.745-.25.097-.088.135-.216.114-.383-.021-.166-.122-.37-.301-.61l.18-.159zM47.251 30.974l3.543-2.447.186.268-.177.122c-.267.184-.422.351-.467.498a.782.782 0 0 0 .015.477c.055.169.275.532.662 1.092l3.317 4.802c.606.877 1.055 1.426 1.344 1.646.289.221.605.352.948.393s.675-.051 1-.274c.371-.256.605-.595.702-1.014.096-.419.065-.884-.095-1.393s-.6-1.284-1.319-2.325l-2.763-3.999c-.303-.438-.552-.729-.746-.873-.194-.145-.365-.219-.513-.224-.228-.006-.48.087-.758.278l-.185-.268 2.374-1.641.184.268-.142.099a.868.868 0 0 0-.365.498c-.052.2-.03.431.066.691.063.185.232.477.509.877l2.573 3.724c.796 1.153 1.318 2.021 1.564 2.605.248.584.313 1.233.198 1.946-.115.714-.529 1.316-1.241 1.809-.594.41-1.131.614-1.611.611a3.044 3.044 0 0 1-1.756-.539c-.515-.355-1.055-.94-1.618-1.756l-3.317-4.801c-.39-.564-.654-.899-.793-1.007s-.29-.164-.455-.172c-.165-.008-.391.092-.678.298l-.186-.269zM57.266 24.455l7.155 4.515-2.456-4.498c-.342-.627-.637-1.018-.884-1.17-.336-.203-.705-.189-1.105.043l-.156-.285 2.419-1.32.156.285c-.279.226-.447.412-.504.561-.057.147-.06.34-.008.575.051.235.212.6.481 1.094l4.756 8.709-.184.101-9.707-6.006 3.63 6.649c.329.603.647.956.954 1.062.308.105.586.091.835-.045l.172-.094.156.285-2.598 1.418-.156-.285c.401-.226.617-.497.649-.815.032-.317-.104-.754-.407-1.31l-4.031-7.383-.308-.192c-.306-.193-.542-.301-.709-.323s-.364.021-.593.133l-.156-.285 2.599-1.419zM71.251 30.476l.133.298-3.979 1.785-.134-.296.252-.113c.221-.099.374-.235.458-.408.063-.118.081-.28.052-.485-.017-.146-.147-.492-.393-1.038l-3.211-7.151c-.25-.557-.426-.895-.53-1.016a.815.815 0 0 0-.414-.252c-.172-.048-.364-.024-.578.071l-.252.113-.133-.296 3.979-1.787.133.297-.252.113c-.221.099-.373.234-.457.407-.064.119-.083.281-.057.488.016.147.147.493.392 1.038l3.211 7.152c.25.556.427.894.533 1.014.105.119.245.203.417.251s.365.024.578-.071l.252-.114zM74.97 16.769l.11.307c-.262.168-.439.478-.531.927-.063.334-.072 1.068-.028 2.204l.363 9.541-.191.068-5.885-7.957c-.709-.96-1.152-1.514-1.33-1.662-.177-.147-.427-.192-.75-.133l-.11-.307 3.766-1.347.109.307-.127.045c-.34.122-.55.266-.63.431-.06.115-.061.252-.003.412.036.1.093.211.172.335s.313.45.703.977l3.672 4.986-.228-5.528c-.03-.668-.06-1.111-.09-1.33a2.779 2.779 0 0 0-.123-.545 1.039 1.039 0 0 0-.249-.405.678.678 0 0 0-.376-.192c-.2-.034-.437-.002-.711.096l-.109-.307 2.576-.923zM78.547 16.596l1.166 4.71.162-.04c.514-.128.829-.45.946-.968.117-.519.096-1.234-.063-2.148l.227-.057 1.5 6.058-.227.056c-.211-.647-.446-1.163-.703-1.546-.258-.382-.505-.621-.745-.716-.239-.095-.552-.095-.938.001l.807 3.259c.158.637.273 1.022.346 1.155s.172.232.298.297c.126.065.305.07.536.013l.484-.12c.756-.188 1.3-.588 1.632-1.201s.471-1.456.417-2.53l.221-.054.546 3.768-7 1.732-.079-.315.269-.066c.235-.059.41-.165.523-.32.084-.105.129-.262.138-.469.01-.147-.057-.511-.201-1.091l-1.884-7.61c-.13-.523-.219-.842-.268-.956a.907.907 0 0 0-.335-.406c-.191-.122-.417-.15-.68-.086l-.269.067-.078-.315 6.778-1.679.847 3.422-.227.056c-.322-.808-.633-1.367-.932-1.68s-.661-.507-1.085-.582c-.249-.047-.679.005-1.292.156l-.837.205z"/><path fill="#7D1416" d="m87.393 20.675.473 3.307c.091.638.176 1.036.254 1.193s.194.275.346.354.417.091.795.037l.046.322-4.227.604-.046-.322c.381-.054.633-.142.754-.263a.812.812 0 0 0 .23-.438c.032-.169.002-.573-.089-1.212L84.835 16.6c-.091-.637-.176-1.035-.254-1.193a.775.775 0 0 0-.346-.354c-.151-.08-.417-.092-.795-.038l-.046-.321 3.837-.549c.999-.143 1.744-.148 2.235-.017.491.131.921.441 1.289.931.369.488.604 1.09.706 1.803.124.87.008 1.621-.35 2.252-.229.4-.583.725-1.06.977l2.556 3.711c.333.479.564.774.692.887a.878.878 0 0 0 .621.213l.046.322-2.601.37-3.429-4.996-.543.077zm-.826-5.785.738 5.168.347-.05c.564-.081.976-.215 1.235-.403.259-.188.441-.485.547-.895.105-.408.113-.923.025-1.544-.129-.898-.371-1.542-.727-1.93-.355-.387-.86-.533-1.514-.44l-.651.094zM99.038 12.909l.22 3.967-.252.01c-.157-.99-.479-1.779-.968-2.367-.488-.589-1.003-.873-1.544-.852-.418.016-.743.188-.975.517-.232.328-.339.7-.324 1.115.01.264.062.497.156.698.129.271.33.536.603.795.2.186.657.512 1.374.977 1.001.647 1.684 1.27 2.047 1.865.359.597.554 1.287.584 2.071.038.996-.201 1.862-.717 2.6-.515.739-1.191 1.124-2.027 1.155a2.366 2.366 0 0 1-.748-.086c-.237-.066-.535-.199-.896-.396-.201-.109-.365-.162-.493-.157-.106.004-.217.067-.332.189-.114.121-.204.304-.268.546l-.227.009-.172-4.496.228-.009c.228 1.258.612 2.209 1.153 2.854.539.645 1.106.956 1.701.934.458-.018.817-.21 1.077-.578.259-.367.379-.788.361-1.263a2.223 2.223 0 0 0-.188-.811 2.516 2.516 0 0 0-.505-.733c-.222-.229-.611-.522-1.167-.883-.779-.504-1.341-.937-1.687-1.299-.347-.361-.617-.771-.813-1.227s-.305-.962-.326-1.518c-.036-.949.177-1.766.639-2.452.462-.687 1.064-1.044 1.806-1.071.271-.011.535.026.792.11.195.063.435.184.719.363.284.181.481.268.592.264a.29.29 0 0 0 .247-.15c.058-.096.107-.323.146-.683l.184-.008z"/><path fill="#7D1416" d="m104.033 24.848-.002.326-4.362-.042.003-.326.277.003c.242.002.437-.058.585-.179.107-.081.191-.222.25-.42.047-.14.072-.509.078-1.106l.076-7.84c.006-.608-.013-.99-.057-1.143a.806.806 0 0 0-.27-.402c-.136-.116-.322-.175-.555-.177l-.277-.003.003-.325 4.362.042-.004.325-.276-.003c-.243-.002-.437.058-.586.179-.107.082-.193.221-.257.42-.047.14-.072.509-.078 1.106l-.075 7.84c-.006.609.013.99.06 1.144a.839.839 0 0 0 .272.402c.137.115.321.174.556.177l.277.002zM112.307 13.996l-.314 3.21-.221-.021c-.059-.753-.15-1.299-.276-1.639a2.013 2.013 0 0 0-.579-.838c-.146-.121-.412-.199-.799-.238l-.619-.061-.898 9.149c-.061.607-.074.988-.041 1.145a.821.821 0 0 0 .236.425c.125.127.307.202.543.226l.275.027-.031.323-4.347-.427.032-.323.273.026c.242.024.441-.018.601-.126.114-.071.212-.203.292-.396.059-.135.117-.501.176-1.096l.898-9.149-.6-.059c-.561-.056-.982.074-1.268.388-.403.438-.693 1.089-.873 1.955l-.232-.023.315-3.21 7.457.732zM121.492 15.777l-.063.318c-.28-.003-.51.068-.689.212-.249.2-.698.795-1.348 1.782l-2.622 3.875-.566 2.826c-.121.604-.174.983-.16 1.139a.825.825 0 0 0 .186.44c.107.138.27.229.488.272l.457.092-.063.319-4.591-.921.064-.318.429.086c.241.048.444.026.609-.066.12-.06.23-.181.33-.364.071-.129.167-.486.284-1.072l.47-2.345-.92-5.392c-.185-1.064-.337-1.701-.459-1.908a.846.846 0 0 0-.573-.397l.064-.318 3.922.786-.064.319-.175-.035c-.238-.048-.413-.032-.528.047a.452.452 0 0 0-.203.282c-.042.207.016.758.17 1.656l.702 4.166 2.178-3.229c.54-.789.837-1.324.894-1.605a.536.536 0 0 0-.078-.419c-.108-.171-.344-.308-.703-.41l.063-.318 2.495.5zM128.196 17.715c1.279.364 2.122 1.238 2.526 2.622.403 1.383.318 2.912-.256 4.586-.49 1.43-1.215 2.588-2.172 3.474-1.27 1.175-2.612 1.52-4.029 1.034-1.42-.486-2.283-1.55-2.587-3.19-.241-1.297-.106-2.69.405-4.182.572-1.674 1.449-2.933 2.629-3.776 1.183-.845 2.343-1.033 3.484-.568zm-.113.556c-.722-.247-1.452.092-2.188 1.016-.603.76-1.182 1.949-1.736 3.567-.659 1.924-.909 3.427-.752 4.509.109.756.462 1.235 1.056 1.439.399.137.78.112 1.144-.073.462-.237.923-.713 1.381-1.427.455-.714.899-1.697 1.328-2.949.512-1.491.797-2.64.856-3.446s-.009-1.414-.205-1.822c-.197-.408-.491-.68-.884-.814zM135.639 21.589l-2.047 4.447.219.1c.335.154.643.209.921.163s.568-.206.872-.479c.305-.272.612-.689.925-1.249l.195.091-2.502 5.437-.196-.09c.402-1.06.521-1.826.357-2.298-.164-.473-.445-.801-.845-.984l-.218-.101-1.524 3.313c-.255.554-.394.91-.413 1.067a.838.838 0 0 0 .084.479c.076.161.222.291.434.389l.25.116-.135.295-3.963-1.823.137-.296.252.115c.22.102.422.127.607.077.131-.03.264-.123.4-.28.1-.109.273-.436.523-.978l3.279-7.122c.254-.554.393-.909.415-1.066s-.005-.316-.081-.478c-.077-.161-.222-.29-.434-.389l-.252-.115.137-.296 6.393 2.942L138 25.685l-.229-.105c.283-.753.398-1.354.346-1.805s-.248-.84-.588-1.171c-.188-.184-.582-.413-1.186-.69l-.704-.325zM147.966 27.552l-1.664 2.762-.19-.114c.271-.704.424-1.238.455-1.599a2 2 0 0 0-.163-1.006c-.079-.171-.286-.357-.62-.559l-.531-.32-4.746 7.874c-.314.521-.49.86-.529 1.015a.847.847 0 0 0 .031.485c.059.169.189.314.395.438l.236.143-.168.279-3.742-2.255.169-.279.236.144c.208.125.406.173.597.144.133-.016.277-.093.433-.231.111-.098.321-.401.63-.913l4.746-7.874-.516-.312c-.482-.29-.92-.354-1.313-.195-.551.223-1.093.686-1.627 1.39l-.201-.121 1.665-2.762 6.417 3.866zM147.385 34.763l-2.225 2.945c-.368.486-.578.806-.633.955s-.061.312-.021.486c.042.174.155.331.342.472l.221.167-.195.26-3.48-2.63.195-.259.222.166c.192.146.386.215.577.205.135-.001.285-.063.451-.188.121-.086.361-.366.722-.843l4.726-6.256c.367-.486.578-.804.635-.952a.816.816 0 0 0 .023-.484c-.042-.174-.155-.331-.342-.472l-.221-.167.196-.26 3.48 2.629-.196.26-.221-.167c-.193-.146-.387-.214-.578-.205-.135.001-.287.063-.456.185-.12.085-.361.366-.722.843l-2.033 2.693 2.351 1.776 2.034-2.693c.367-.486.578-.804.635-.952s.063-.311.021-.486c-.043-.175-.157-.333-.343-.474l-.217-.163.197-.26 3.475 2.626-.197.259-.215-.163c-.195-.148-.389-.217-.577-.205-.136.001-.286.063-.456.185-.121.085-.361.366-.722.843l-4.726 6.255c-.367.487-.578.805-.635.953a.814.814 0 0 0-.02.486c.042.175.156.333.343.475l.217.162-.196.26-3.476-2.626.195-.259.217.162c.196.149.39.217.577.205.134-.001.285-.063.455-.185.121-.084.361-.365.722-.842l2.226-2.945-2.352-1.777z"/><path fill="#7D1416" d="m158.191 36.521-3.311 3.546.121.113c.387.361.828.449 1.326.265s1.087-.592 1.767-1.225l.172.16-4.261 4.561-.17-.159c.428-.53.732-1.009.913-1.434.181-.424.245-.763.194-1.015s-.223-.514-.514-.785l-2.29 2.454c-.448.479-.708.786-.78.92-.07.133-.1.271-.086.412s.107.293.281.456l.365.34c.568.531 1.201.77 1.896.714.695-.057 1.477-.4 2.348-1.031l.166.155-2.859 2.513-5.271-4.922.222-.238.203.189c.178.165.361.254.554.265.134.013.288-.034.467-.141.129-.072.397-.326.806-.764l5.351-5.729c.368-.394.587-.643.655-.747a.915.915 0 0 0 .158-.502c-.002-.227-.103-.432-.3-.616l-.202-.189.222-.237 5.103 4.766-2.404 2.576-.172-.16c.502-.71.801-1.275.9-1.697a1.94 1.94 0 0 0-.105-1.228c-.095-.233-.373-.565-.836-.997l-.629-.589zM161.088 47.918l-2.526 2.131c-.493.415-.784.698-.876.848a.77.77 0 0 0-.115.484c.016.172.145.402.388.691l-.249.209-2.732-3.24.248-.21c.248.295.456.462.623.501s.33.026.492-.036c.161-.064.488-.304.981-.719l5.912-4.987c.493-.415.785-.698.877-.849.091-.149.13-.31.116-.48s-.143-.402-.389-.694l.248-.209 2.344 2.779c.772.915 1.094 1.769.963 2.561-.129.79-.543 1.48-1.242 2.07-.592.498-1.206.797-1.844.895s-1.223-.015-1.756-.337c-.364-.215-.853-.683-1.463-1.408zm4.461-3.763-3.937 3.321c.078.11.14.192.185.246.322.382.734.54 1.233.474.499-.067 1.089-.388 1.769-.962.678-.571 1.085-1.092 1.225-1.563.139-.473.035-.913-.313-1.324l-.162-.192zM165.714 53.287l-3.046 2.086c-.503.344-.804.579-.902.703a.837.837 0 0 0-.174.455c-.016.178.041.363.174.556l.156.229-.27.184-2.463-3.599.268-.184.156.229c.137.199.298.326.482.378.129.042.291.03.487-.035.142-.042.458-.232.952-.57l6.469-4.43c.502-.345.803-.579.904-.702a.814.814 0 0 0 .174-.451c.018-.178-.041-.364-.172-.557l-.157-.229.269-.184 2.465 3.599-.27.184-.156-.229c-.136-.199-.297-.325-.482-.378-.127-.041-.291-.031-.49.03-.142.043-.459.232-.951.57l-2.784 1.907 1.665 2.432 2.784-1.907c.503-.345.805-.578.905-.701a.82.82 0 0 0 .172-.455c.018-.18-.042-.366-.174-.559l-.153-.224.269-.184 2.461 3.594-.268.184-.154-.224c-.139-.203-.299-.328-.482-.378-.128-.041-.291-.031-.49.03-.143.043-.457.232-.951.57l-6.469 4.431c-.503.345-.805.578-.904.701a.808.808 0 0 0-.174.455c-.016.179.043.365.176.559l.152.224-.268.183-2.462-3.593.269-.184.152.223c.14.203.301.329.482.378.129.041.292.032.492-.03.141-.042.457-.232.951-.569l3.045-2.087-1.665-2.431z"/><path fill="#7D1416" d="m166.422 64.645-.283.161-2.162-3.788.283-.161.137.241c.12.21.27.348.449.415.125.053.287.054.489.005.144-.031.478-.193.995-.49l6.809-3.886c.529-.302.85-.511.959-.625a.815.815 0 0 0 .212-.437c.03-.176-.011-.365-.127-.568l-.138-.24.283-.161 2.162 3.788-.283.161-.137-.24c-.12-.21-.271-.349-.451-.416-.123-.052-.287-.055-.49-.01-.145.03-.476.193-.996.489l-6.809 3.887c-.529.302-.848.512-.956.628-.11.116-.181.263-.211.438s.011.366.127.568l.138.241z"/><path fill="#7D1416" d="m172.999 69.372-3.909 1.519-3.19-6.686.293-.14.12.25c.104.218.243.367.417.447.12.062.282.074.486.041.147-.021.489-.159 1.029-.416l7.076-3.376c.55-.263.884-.447 1.001-.554a.82.82 0 0 0 .244-.419c.043-.173.016-.365-.086-.577l-.119-.249.293-.141 1.916 4.015-.293.141-.156-.328c-.104-.218-.244-.368-.418-.448-.12-.061-.283-.076-.49-.046-.146.02-.489.158-1.029.416l-6.852 3.271c-.551.263-.891.451-1.02.568a.604.604 0 0 0-.213.422c-.004.115.079.351.249.705l.3.628c.19.399.449.685.777.855s.756.25 1.282.237 1.255-.134 2.183-.364l.109.229z"/><path fill="#7D1416" d="m170.883 74.74-.303.118-1.582-4.065.303-.118.1.259c.088.226.217.385.384.478.115.069.276.095.483.076.146-.009.499-.122 1.057-.339l7.305-2.844c.568-.222.915-.381 1.041-.479.125-.097.217-.229.273-.399s.042-.363-.042-.581l-.101-.258.303-.118 1.582 4.065-.303.118-.102-.259c-.086-.226-.214-.385-.383-.478-.115-.069-.277-.097-.484-.082-.148.009-.5.122-1.057.339l-7.306 2.844c-.567.221-.915.381-1.04.48a.836.836 0 0 0-.271.403c-.057.169-.043.363.043.581l.1.259z"/><path fill="#7D1416" d="m176.515 75.667-3.155.982c-.615.191-.995.339-1.139.441a.779.779 0 0 0-.293.401c-.053.164-.023.427.09.787l-.312.097-1.262-4.047.312-.097c.115.368.241.603.381.702a.798.798 0 0 0 .468.157c.173.005.567-.089 1.182-.28l7.385-2.301c.616-.191.993-.339 1.138-.441a.781.781 0 0 0 .294-.398c.054-.162.024-.426-.09-.79l.311-.097 1.081 3.472c.357 1.143.322 2.054-.105 2.732-.427.679-1.076 1.154-1.948 1.426-.739.23-1.422.267-2.047.109a2.54 2.54 0 0 1-1.488-.993c-.255-.337-.522-.958-.803-1.862zm5.571-1.736-4.917 1.532c.028.133.054.232.075.299.148.478.465.783.951.915s1.154.065 2.005-.199c.845-.263 1.423-.585 1.733-.966.312-.38.388-.827.227-1.34l-.074-.241zM178.328 82.381l-3.229.703c-.629.138-1.02.251-1.171.341s-.261.214-.329.374c-.066.159-.061.423.02.792l-.316.069-.904-4.142.318-.069c.082.377.188.621.318.733a.8.8 0 0 0 .451.197c.173.02.573-.04 1.204-.178l7.557-1.646c.629-.138 1.021-.251 1.171-.341a.78.78 0 0 0 .329-.371c.067-.157.061-.423-.021-.795l.317-.069.774 3.553c.256 1.17.141 2.074-.344 2.713-.485.64-1.174 1.057-2.066 1.251-.756.164-1.438.141-2.048-.07a2.542 2.542 0 0 1-1.396-1.119c-.221-.359-.433-1.001-.635-1.926zm5.703-1.243-5.032 1.097c.017.135.032.236.048.305.106.488.396.82.869.994s1.145.166 2.014-.023c.865-.188 1.469-.459 1.813-.812.342-.351.456-.789.342-1.314l-.054-.247zM174.709 91.128l-.322.048-.632-4.317.321-.046.04.273c.036.239.125.423.269.552.096.094.246.154.452.183.146.024.515-.008 1.106-.094l7.756-1.136c.604-.089.977-.166 1.121-.232a.806.806 0 0 0 .355-.329c.094-.153.123-.345.09-.576l-.041-.273.322-.048.633 4.316-.322.047-.041-.274c-.034-.239-.123-.423-.267-.552-.097-.093-.248-.155-.454-.188-.146-.024-.515.007-1.105.094l-7.757 1.136c-.604.089-.977.166-1.121.235a.817.817 0 0 0-.354.332c-.093.152-.123.345-.09.576l.041.273z"/><path fill="#7D1416" d="m186.485 92.59-7.096 4.608 5.112-.348c.713-.049 1.189-.153 1.432-.313.326-.22.468-.56.424-1.021l.324-.021.188 2.749-.326.022c-.088-.348-.186-.579-.297-.692-.109-.113-.283-.196-.519-.248s-.634-.059-1.196-.021l-9.899.673-.015-.209 9.519-6.302-7.559.514c-.685.047-1.14.188-1.364.423s-.328.494-.309.776l.014.196-.323.022-.2-2.953.324-.022c.037.459.192.769.468.931.274.162.729.222 1.36.179l8.392-.569.304-.2c.303-.197.5-.367.591-.509.09-.142.132-.34.127-.595l.325-.021.199 2.951zM186.082 102.031l-4.848-.204-.008.166c-.021.528.199.921.664 1.18.464.257 1.156.438 2.078.543l-.01.233-6.234-.262.01-.234c.682-.021 1.242-.102 1.682-.239.441-.141.74-.312.898-.514.156-.203.244-.503.261-.9l-3.353-.142c-.656-.027-1.059-.025-1.207.008a.706.706 0 0 0-.369.202c-.099.104-.152.273-.162.511l-.021.499c-.033.778.199 1.412.694 1.903s1.266.86 2.311 1.11l-.01.228-3.769-.534.303-7.204.326.014-.013.276c-.011.241.044.439.159.592.078.109.215.198.412.264.139.051.507.089 1.104.114l7.834.33c.538.022.869.026.992.011a.908.908 0 0 0 .484-.207c.17-.149.261-.359.273-.63l.01-.275.326.013-.295 6.977-3.52-.148.01-.232c.864-.083 1.49-.224 1.874-.424a1.94 1.94 0 0 0 .864-.877c.115-.227.186-.654.212-1.285l.038-.863zM186.169 112.631l-3.952-.397.029-.25c1.002-.002 1.832-.199 2.489-.59s1.018-.855 1.081-1.394c.049-.415-.072-.763-.36-1.043s-.64-.442-1.053-.491a1.776 1.776 0 0 0-.714.046c-.287.084-.58.242-.877.472-.215.169-.607.57-1.178 1.206-.797.89-1.516 1.466-2.161 1.733-.645.264-1.356.349-2.137.257-.989-.116-1.808-.486-2.458-1.11-.648-.623-.924-1.351-.826-2.182a2.42 2.42 0 0 1 .2-.726c.103-.224.28-.498.53-.824.139-.181.217-.335.23-.462.014-.106-.031-.225-.134-.356-.103-.133-.269-.249-.499-.35l.026-.227 4.47.526-.026.226c-1.278.032-2.278.264-2.999.698-.721.434-1.115.944-1.186 1.535-.053.456.082.841.405 1.154.323.312.72.496 1.191.553.28.032.557.012.831-.061.273-.073.54-.202.801-.386.261-.185.611-.523 1.053-1.017.619-.691 1.135-1.18 1.545-1.465a4.096 4.096 0 0 1 1.338-.614 4.2 4.2 0 0 1 1.55-.087c.942.111 1.718.447 2.324 1.011.606.563.866 1.213.779 1.95a2.295 2.295 0 0 1-.231.766c-.094.184-.25.401-.471.654-.222.251-.339.433-.353.543a.286.286 0 0 0 .11.267c.086.073.304.155.651.251l-.018.184z"/><circle fill="none" cx="100" cy="99.922" r="86.963"/><path fill="#7D1416" d="m70.878 169.239-1.398 2.906-.2-.096c.205-.728.305-1.273.302-1.636s-.089-.69-.256-.985c-.095-.163-.318-.329-.669-.497l-.56-.27-3.984 8.285c-.264.549-.408.902-.431 1.061-.024.157.001.317.076.48s.219.295.434.398l.25.12-.142.292-3.937-1.893.141-.294.249.12c.218.105.421.134.607.088.132-.027.269-.118.411-.271.102-.108.282-.431.541-.97l3.984-8.285-.543-.261c-.506-.243-.947-.268-1.324-.071-.527.273-1.024.785-1.49 1.536l-.211-.102 1.398-2.906 6.752 3.251zM71.906 178.683l-2.767-1.013-.729.969c-.241.323-.404.604-.491.841-.115.313-.111.577.012.79.071.127.304.286.695.479l-.111.305-2.605-.953.112-.305c.303.042.595-.04.876-.246.281-.207.709-.687 1.288-1.442l6.07-7.906.109.041-.534 10.212c-.048.969-.027 1.598.063 1.886a.825.825 0 0 0 .446.5l-.112.306-3.79-1.387.111-.306.156.058c.304.11.541.128.708.052.117-.056.206-.168.266-.333a1.5 1.5 0 0 0 .077-.317c.011-.052.028-.279.053-.683l.097-1.548zm.028-.683.243-4.281-2.612 3.414 2.369.867zM86.385 173.58l-.967 4.088-.221-.053c-.003-1.181-.203-2.125-.601-2.833s-.914-1.138-1.548-1.287c-.607-.144-1.169-.02-1.688.372-.518.394-.964 1.006-1.338 1.839a14.639 14.639 0 0 0-.887 2.626c-.263 1.111-.402 2.107-.417 2.989-.015.883.136 1.568.453 2.058a2.09 2.09 0 0 0 1.318.937c.196.046.403.063.624.052.22-.011.45-.048.693-.111l.57-2.412c.108-.456.156-.757.144-.901s-.074-.286-.187-.428a.81.81 0 0 0-.461-.281l-.209-.049.075-.316 3.946.933-.075.316c-.306-.042-.528-.032-.667.027-.139.062-.265.187-.377.376-.062.1-.143.361-.242.783l-.57 2.412a6.612 6.612 0 0 1-1.796.365 6.247 6.247 0 0 1-1.805-.16c-.771-.182-1.375-.483-1.813-.903s-.794-.919-1.068-1.499a5.866 5.866 0 0 1-.524-1.862c-.093-.853-.024-1.767.206-2.742.413-1.745 1.19-3.117 2.333-4.117 1.143-1 2.364-1.347 3.666-1.039a4.14 4.14 0 0 1 1.057.396c.165.087.418.284.761.591s.55.469.622.485c.112.026.229-.008.353-.102.124-.095.263-.294.42-.601l.22.051zM87.092 174.006l4.279.49-.037.324-.214-.025c-.322-.037-.548-.014-.68.068a.784.784 0 0 0-.302.368c-.071.162-.145.582-.222 1.257l-.665 5.798c-.121 1.061-.146 1.768-.073 2.123.073.357.225.663.456.92.23.256.541.407.933.452.448.051.847-.05 1.195-.301.349-.252.631-.622.846-1.11.215-.489.395-1.362.539-2.62l.554-4.828c.061-.529.065-.912.014-1.148-.051-.235-.131-.404-.239-.505-.168-.154-.419-.251-.753-.29l.038-.323 2.867.329-.037.322-.172-.02a.863.863 0 0 0-.603.135c-.17.116-.306.304-.405.564-.075.18-.14.511-.195.995l-.516 4.496c-.159 1.392-.338 2.389-.538 2.99-.199.603-.577 1.135-1.133 1.596s-1.265.642-2.125.544c-.717-.083-1.255-.282-1.615-.602-.491-.433-.813-.954-.967-1.562s-.174-1.402-.061-2.387l.665-5.798c.078-.681.1-1.108.066-1.279a.79.79 0 0 0-.229-.429c-.119-.114-.354-.188-.705-.223l.034-.321z"/><path fill="#7D1416" d="m99.621 186.601-.009.325-4.36-.124.009-.324.277.008c.242.007.438-.049.59-.168.108-.079.195-.218.258-.415.049-.139.082-.507.099-1.104l.223-7.838c.018-.608.006-.99-.035-1.144a.817.817 0 0 0-.263-.407c-.134-.118-.317-.181-.551-.188l-.277-.008.009-.325 4.36.125-.009.325-.277-.009c-.242-.007-.438.05-.589.169-.109.078-.197.217-.264.414-.049.139-.082.507-.099 1.104l-.223 7.837c-.018.609-.004.991.038 1.144.042.154.131.29.266.408.134.119.318.181.551.188l.276.007zM108.396 174.338l.256 4.193-.228.014c-.344-1.13-.809-1.977-1.394-2.539-.586-.563-1.203-.825-1.854-.785-.623.038-1.125.319-1.508.845-.384.525-.634 1.241-.751 2.146a14.666 14.666 0 0 0-.09 2.771c.069 1.142.226 2.135.466 2.983.241.849.584 1.461 1.027 1.839.445.378.955.55 1.533.514.199-.012.404-.055.611-.129s.417-.177.631-.307l-.15-2.475c-.029-.469-.07-.769-.123-.903a.792.792 0 0 0-.303-.356.802.802 0 0 0-.523-.135l-.215.013-.02-.324 4.047-.248.02.325c-.305.048-.516.121-.631.219-.115.099-.198.255-.251.469-.03.113-.032.387-.005.819l.15 2.475c-.512.371-1.05.66-1.614.868s-1.156.33-1.774.368c-.79.049-1.455-.064-1.996-.34s-1.025-.65-1.455-1.126a5.916 5.916 0 0 1-1.041-1.632c-.335-.79-.533-1.685-.595-2.685-.108-1.79.239-3.328 1.044-4.616s1.874-1.973 3.209-2.054a4.146 4.146 0 0 1 1.126.071c.183.037.483.151.899.346.417.195.662.29.735.286.114-.007.218-.074.309-.199.091-.127.167-.358.229-.696l.229-.015zM118.549 172.423l2.289 9.475c.172.711.305 1.16.396 1.346a.906.906 0 0 0 .392.416c.17.092.408.101.715.026l.186-.045.077.316-4.271 1.032-.076-.316.215-.053c.348-.083.581-.199.701-.35a.868.868 0 0 0 .186-.542c.003-.212-.083-.682-.26-1.411l-1.451-6.006c-.129-.535-.229-.865-.296-.991-.069-.124-.163-.223-.283-.293s-.245-.09-.372-.06c-.203.049-.429.2-.676.452l-.182-.281 2.514-2.668.196-.047zM124.445 183.714l-.076-.234a4.702 4.702 0 0 0 1.342-1.473c.314-.56.506-1.187.57-1.879s.021-1.452-.132-2.277a3.245 3.245 0 0 1-.495.573 1.445 1.445 0 0 1-.502.278c-.6.197-1.201.052-1.803-.438-.602-.487-1.078-1.269-1.43-2.343a6.563 6.563 0 0 1-.344-2.158c.013-.691.164-1.274.454-1.748s.651-.781 1.084-.923c.464-.151.964-.104 1.501.14.537.243 1.046.685 1.526 1.323.48.638.87 1.417 1.171 2.335a10.41 10.41 0 0 1 .52 3.621c-.044 1.223-.354 2.293-.93 3.211-.575.92-1.393 1.584-2.456 1.992zm1.563-6.595a28.54 28.54 0 0 0-.479-1.665 16.232 16.232 0 0 0-1.172-2.751c-.251-.454-.506-.766-.764-.935a.492.492 0 0 0-.44-.06c-.194.064-.308.233-.339.509-.045.378.084 1.029.386 1.954.504 1.543.98 2.565 1.429 3.066.291.323.579.438.863.346.153-.049.324-.203.516-.464zM130.898 181.553l-.095-.227c.544-.468.95-.991 1.222-1.574a4.668 4.668 0 0 0 .422-1.918c.01-.695-.094-1.448-.312-2.259-.162.27-.312.474-.448.61a1.5 1.5 0 0 1-.479.317c-.582.242-1.193.144-1.831-.295-.638-.439-1.175-1.181-1.608-2.226a6.514 6.514 0 0 1-.514-2.122c-.041-.691.064-1.284.316-1.779s.588-.83 1.008-1.004c.451-.188.953-.182 1.508.02.555.2 1.096.601 1.625 1.2.529.598.979 1.343 1.35 2.235.482 1.158.75 2.349.803 3.57s-.172 2.313-.674 3.273c-.502.963-1.266 1.689-2.293 2.179zm1.04-6.696a29.373 29.373 0 0 0-.607-1.623 16.19 16.19 0 0 0-1.384-2.651c-.286-.433-.565-.723-.835-.871a.488.488 0 0 0-.443-.024c-.189.079-.289.257-.299.533-.015.381.165 1.021.539 1.918.623 1.498 1.178 2.48 1.664 2.944.316.3.611.393.889.277.146-.061.306-.229.476-.503zM141.338 176.482l-4.373 2.234-.088-.173c.176-2.964.205-4.915.09-5.849-.117-.935-.366-1.777-.75-2.528-.28-.549-.632-.942-1.055-1.184-.422-.241-.806-.274-1.148-.1-.563.288-.795.913-.693 1.875l-.256.001c-.314-1.102-.393-1.996-.236-2.682.156-.685.497-1.162 1.023-1.431a1.804 1.804 0 0 1 1.222-.151c.438.092.856.312 1.255.658.398.346.693.709.889 1.09.354.693.58 1.467.674 2.32.125 1.153.008 2.912-.352 5.272l1.605-.82c.395-.201.639-.355.733-.463.095-.108.151-.237.171-.389s0-.439-.061-.862l.197-.102 1.153 3.284z"/></svg>